<svg xmlns="http://www.w3.org/2000/svg" xmlns:xlink="http://www.w3.org/1999/xlink" viewBox="0 0 200.29781 200">
  <defs>
    <linearGradient id="f736b4c1-1aed-4a6b-a12d-5fe71b082a41" y1="100" x2="200.29781" y2="100" gradientUnits="userSpaceOnUse">
      <stop offset="0" stop-color="#2489be"/>
      <stop offset="1" stop-color="#0575b3"/>
    </linearGradient>
  </defs>
  <title>Asset 442</title>
  <g id="dcb58f36-a553-495e-90f8-c280b5641d2e" data-name="Layer 2">
    <g id="612dcf91-4db4-48ae-a1bd-a84e875e5551" data-name="elements">
      <path d="M45.63553,200H4.36469V66.66677H45.63553ZM24.80274,49.20617A24.60348,24.60348,0,1,1,49.20618,24.40425q.00079.09921.0008.19844A24.50575,24.50575,0,0,1,24.80274,49.20617ZM200.29781,200h-41.0716V130.011c0-19.19556-7.29138-29.91178-22.47-29.91178-16.52074,0-25.15047,11.15981-25.15047,29.91178V200H72.02286V66.66677h39.58286V84.62361a46.50392,46.50392,0,0,1,40.17873-22.02453c28.27456,0,48.51336,17.26322,48.51336,52.97577Z" style="fill: url(#f736b4c1-1aed-4a6b-a12d-5fe71b082a41)"/>
    </g>
  </g>
</svg>
