<svg xmlns="http://www.w3.org/2000/svg" xmlns:xlink="http://www.w3.org/1999/xlink" viewBox="0 0 200.00001 200">
  <defs>
    <clipPath id="e1e96354-f00d-4894-a993-e3d2b472a09f">
      <path d="M66.6761,100a33.33939,33.33939,0,1,1,0,.00673m-18.02129,0a51.34924,51.34924,0,1,0,51.35059-51.3479h-.00135a51.34789,51.34789,0,0,0-51.34924,51.34655v.00135M141.38573,46.6225a12.00119,12.00119,0,1,0,12.00656-11.9958H153.391a12.00792,12.00792,0,0,0-12.00117,11.9958M59.60486,181.39864c-9.75087-.44415-15.04959-2.06862-18.5731-3.44007A33.10848,33.10848,0,0,1,22.04817,158.9817c-1.3728-3.52081-2.99593-8.82088-3.43872-18.57311-.48586-10.54091-.58276-13.70775-.58276-40.41264s.105-29.86232.58276-40.41131c.44279-9.74953,2.07938-15.04017,3.43872-18.5731A33.09777,33.09777,0,0,1,41.03445,22.03872c3.51947-1.3728,8.81954-2.99727,18.5731-3.44006,10.53957-.48452,13.70641-.58142,40.39919-.58142s29.86231.10229,40.4113.58276c9.75087.44414,15.04017,2.08073,18.5731,3.44006A33.09784,33.09784,0,0,1,177.968,41.01693c1.3728,3.52081,2.99591,8.82088,3.4387,18.5731.48585,10.55033.58276,13.70776.58276,40.41265s-.09691,29.86231-.58276,40.41129c-.44279,9.74954-2.07535,15.04825-3.4387,18.57311A33.1086,33.1086,0,0,1,158.99114,177.964c-3.51947,1.3728-8.81952,2.99728-18.5731,3.44007-10.53957.48451-13.70641.58142-40.41131.58142s-29.86232-.09691-40.39919-.58142M58.7758.60563A73.39055,73.39055,0,0,0,34.50291,5.25025,51.13125,51.13125,0,0,0,5.25431,34.50019,73.3626,73.3626,0,0,0,.60969,58.77174C.1171,69.43512.00405,72.84288.00405,100s.11305,30.56621.60564,41.22824a73.36391,73.36391,0,0,0,4.64462,24.2729,51.12451,51.12451,0,0,0,29.2486,29.24861,73.38792,73.38792,0,0,0,24.27289,4.64463C69.44457,199.87888,72.84694,200,100.004,200s30.56621-.113,41.22825-.60564a73.32907,73.32907,0,0,0,24.27289-4.64463,51.12449,51.12449,0,0,0,29.24859-29.24859,73.15637,73.15637,0,0,0,4.64463-24.2729c.48452-10.67011.59757-14.07114.59757-41.22824s-.113-30.56486-.59757-41.22824a73.33313,73.33313,0,0,0-4.64463-24.27155A51.14327,51.14327,0,0,0,165.51325,5.25027,73.2787,73.2787,0,0,0,141.24036.60565C130.57563.11844,127.16921,0,100.01615,0S69.44859.11305,58.77982.60565" style="fill: none"/>
    </clipPath>
    <radialGradient id="b38cc617-f0a8-4491-8f27-ade75a73eeeb" cx="-517.42751" cy="-6636.41506" r="634.75775" gradientTransform="matrix(0.40004, 0, 0, -0.40004, 219.93327, -2459.18429)" gradientUnits="userSpaceOnUse">
      <stop offset="0.09" stop-color="#fa8f21"/>
      <stop offset="0.78" stop-color="#d82d7e"/>
    </radialGradient>
  </defs>
  <title>Asset 443</title>
  <g id="bf670d62-6a0b-4371-b488-f282aa46a0ed" data-name="Layer 2">
    <g id="1761d871-f090-4558-93af-0e4a9222fbfe" data-name="elements">
      <g style="clip-path: url(#e1e96354-f00d-4894-a993-e3d2b472a09f)">
        <path d="M50.71478,199.29266c-11.89408-.54091-18.35528-2.52028-22.65284-4.19651a37.90011,37.90011,0,0,1-14.028-9.12415A37.61037,37.61037,0,0,1,4.9098,171.95C3.23357,167.65239,1.2542,161.1912.71329,149.29711.11888,136.44009,0,132.5824,0,100.00892S.13077,63.58368.70734,50.71478c.54091-11.89408,2.53218-18.3434,4.19651-22.65284A38.045,38.045,0,0,1,14.028,14.028,37.658,37.658,0,0,1,28.056,4.90385C32.35355,3.22763,38.81475,1.24825,50.70883.70734,63.57179.11888,67.43543,0,99.997,0c32.57349,0,36.42524.13077,49.29415.70734,11.89408.54091,18.34339,2.53218,22.65284,4.19651A37.75314,37.75314,0,0,1,185.972,14.028a37.77881,37.77881,0,0,1,9.12414,14.028c1.67622,4.29756,3.6556,10.75876,4.19652,22.65284C199.88113,63.57773,200,67.42948,200,100.003c0,32.5616-.11888,36.42524-.70733,49.29414-.54092,11.89409-2.53218,18.35528-4.19652,22.65285A40.39185,40.39185,0,0,1,171.944,195.09615c-4.29756,1.67622-10.75876,3.6556-22.65284,4.19651-12.857.58846-16.72066.70734-49.29415.70734-32.5616,0-36.42524-.11293-49.28225-.70734" style="fill: url(#b38cc617-f0a8-4491-8f27-ade75a73eeeb)"/>
      </g>
    </g>
  </g>
</svg>
