<svg xmlns="http://www.w3.org/2000/svg" viewBox="0 0 199.99192 200">
  <title>Asset 412</title>
  <g id="a996a72b-b5d3-4c02-a3a7-3c15908f8804" data-name="Layer 2">
    <g id="a6581c80-13cf-4afc-94c6-1a2c710b4d50" data-name="elements">
      <path d="M66.67205,100a33.33939,33.33939,0,1,1,0,.00673m-18.02129,0a51.34924,51.34924,0,1,0,51.35059-51.3479H100a51.3479,51.3479,0,0,0-51.34925,51.34655v.00135M141.38169,46.6225a12.00119,12.00119,0,1,0,12.00655-11.9958h-.00133a12.00793,12.00793,0,0,0-12.00118,11.9958M59.60082,181.39864c-9.75088-.44415-15.0496-2.06862-18.5731-3.44007a33.10852,33.10852,0,0,1-18.9836-18.97687c-1.37279-3.52081-2.99592-8.82088-3.43871-18.57311-.48586-10.54091-.58277-13.70775-.58277-40.41264s.105-29.86232.58277-40.41131c.44279-9.74953,2.07938-15.04017,3.43871-18.5731A33.09778,33.09778,0,0,1,41.03041,22.03872c3.51947-1.3728,8.81953-2.99727,18.5731-3.44006,10.53956-.48452,13.70641-.58142,40.39919-.58142S129.865,18.11953,140.414,18.6c9.75087.44414,15.04018,2.08073,18.57311,3.44006A33.09782,33.09782,0,0,1,177.964,41.01693c1.3728,3.52081,2.99592,8.82088,3.43871,18.5731.48585,10.55033.58276,13.70776.58276,40.41265s-.09691,29.86231-.58276,40.41129c-.44279,9.74954-2.07536,15.04825-3.43871,18.57311A33.10858,33.10858,0,0,1,158.9871,177.964c-3.51948,1.3728-8.81953,2.99728-18.57311,3.44007-10.53956.48451-13.70641.58142-40.4113.58142s-29.86233-.09691-40.39919-.58142M58.77175.60563A73.39049,73.39049,0,0,0,34.49887,5.25025,51.13122,51.13122,0,0,0,5.25027,34.50019,73.36234,73.36234,0,0,0,.60565,58.77174C.11306,69.43512,0,72.84288,0,100s.11305,30.56621.60565,41.22824a73.3634,73.3634,0,0,0,4.64462,24.2729,51.12448,51.12448,0,0,0,29.2486,29.24861,73.38787,73.38787,0,0,0,24.27288,4.64463C69.44052,199.87888,72.8429,200,100,200s30.56621-.113,41.22824-.60564a73.32918,73.32918,0,0,0,24.2729-4.64463,51.12449,51.12449,0,0,0,29.24859-29.24859,73.15661,73.15661,0,0,0,4.64462-24.2729c.48452-10.67011.59757-14.07114.59757-41.22824s-.113-30.56486-.59757-41.22824a73.33312,73.33312,0,0,0-4.64462-24.27155A51.14333,51.14333,0,0,0,165.50921,5.25027,73.27871,73.27871,0,0,0,141.23631.60565C130.57159.11844,127.16516,0,100.0121,0S69.44455.11305,58.77578.60565" style="fill: #dededd"/>
    </g>
  </g>
</svg>
