<svg xmlns="http://www.w3.org/2000/svg" viewBox="0 0 1590.61075 892.27195">
  <title>Asset 2</title>
  <g id="8d2c9bbe-270e-4d63-9c0b-5fb6525a224f" data-name="Layer 2">
    <g id="53859504-4980-4f95-ab9f-feefd9e92bf3" data-name="Layer 1">
      <g>
        <g>
          <path d="M654.55581,0,966.778,540.78459h173.95L828.50583,0H654.557" style="fill: #dededd"/>
          <path d="M579.67091,315.98488l43.48691-75.32157c.0125.02224,86.63721,150.06064,86.63721,150.06064s.08473.14675.33923.58443l-86.3001,149.47621H449.88278Z" style="fill: #8ba63e"/>
        </g>
        <g>
          <path d="M148.88948,718.56761l-30.27425,29.77784H34.74081V862.49412H138.96353V892.272H34.74081A33.44774,33.44774,0,0,1,10.1743,882.098,33.448,33.448,0,0,1,0,857.53114V753.30842a33.4724,33.4724,0,0,1,10.1743-24.5668,33.47718,33.47718,0,0,1,24.56651-10.174Z" style="fill: #dededd"/>
          <path d="M357.33257,857.53114a34.73672,34.73672,0,0,1-34.7411,34.74081H218.36875a34.73672,34.73672,0,0,1-34.74081-34.74081V753.30842a34.73674,34.73674,0,0,1,34.74081-34.74081H322.59147a34.73674,34.73674,0,0,1,34.7411,34.74081Zm-34.7411,4.963V748.34545H218.36875V862.49412Z" style="fill: #dededd"/>
          <path d="M600.51383,892.272H565.773V867.45709L540.95816,892.272H461.55a34.73672,34.73672,0,0,1-34.74081-34.74081V753.30842A34.73674,34.73674,0,0,1,461.55,718.56761H565.773V639.15976L600.51383,604.419ZM565.773,862.49412V723.53059l-24.81486,24.81486H461.55V862.49412Z" style="fill: #dededd"/>
          <path d="M709.69923,688.78978H674.95842V649.0857h34.74081Zm0,203.48217H674.95842V743.38248l34.74081-34.74081Z" style="fill: #dededd"/>
          <path d="M920.62176,718.56761l-30.274,29.77784H806.47339v39.70378H875.955a34.73723,34.73723,0,0,1,34.74081,34.7411v34.74081A34.73672,34.73672,0,0,1,875.955,892.272H771.73258V862.49412H875.955v-44.667H806.47339a34.73573,34.73573,0,0,1-34.74081-34.74081V753.30842a34.73573,34.73573,0,0,1,34.74081-34.74081Z" style="fill: #dededd"/>
          <path d="M1086.88164,892.272h-69.4822a34.73672,34.73672,0,0,1-34.74081-34.74081V748.34545H933.0289l29.77783-29.77784h19.8519v-34.7411l34.74081-34.74081v69.48191h69.4822v29.77784h-69.4822V862.49412h69.4822Z" style="fill: #dededd"/>
          <path d="M1171.24513,688.78978h-34.74081V649.0857h34.74081Zm0,203.48217h-34.74081V743.38248l34.74081-34.74081Z" style="fill: #dededd"/>
          <path d="M1389.613,718.56761l-30.27455,29.77784H1275.464V862.49412h104.223V892.272H1275.464a34.73672,34.73672,0,0,1-34.74081-34.74081V753.30842a34.73674,34.73674,0,0,1,34.74081-34.74081Z" style="fill: #dededd"/>
          <path d="M1590.61075,892.272h-34.74081V866.96067L1526.09211,892.272h-74.44459a34.73571,34.73571,0,0,1-34.74081-34.74081V822.79033a34.73623,34.73623,0,0,1,34.74081-34.7411H1550.907L1521.12913,817.331h-69.48161v45.16317h104.22242V748.34545H1416.90671l29.77783-29.77784h109.1854a34.73573,34.73573,0,0,1,34.74081,34.74081Z" style="fill: #dededd"/>
        </g>
      </g>
    </g>
  </g>
</svg>
