<svg xmlns="http://www.w3.org/2000/svg" viewBox="0 0 2621.58509 460.25412">
  <title>Asset 11</title>
  <g id="13ee90dd-b6d8-482b-8738-4072f3850c69" data-name="Layer 2">
    <g id="9f9841fd-9a81-4212-9744-071d99f0a91d" data-name="Layer 1">
      <g>
        <g>
          <path d="M2371.89406,182.51494l160.3528,277.73918h89.33823l-160.3528-277.73918h-89.33764" style="fill: #666"/>
          <path d="M2333.43425,344.80022l22.33426-38.68407c.00642.01142,44.49562,77.069,44.49562,77.069s.04352.07537.17423.30015l-44.32249,76.76883h-89.33893Z" style="fill: #8cc63f"/>
        </g>
        <g>
          <path d="M238.06174,182.51467l-48.406,47.612H55.54791V412.64135H222.19079v47.612H55.54791a53.47913,53.47913,0,0,1-39.28037-16.26753A53.47806,53.47806,0,0,1,0,404.70629V238.06174A53.51545,53.51545,0,0,1,16.26754,198.7822a53.52427,53.52427,0,0,1,39.28037-16.26753Z" style="fill: #666"/>
          <path d="M571.34333,404.70629a55.54082,55.54082,0,0,1-55.54707,55.54707H349.15338a55.54082,55.54082,0,0,1-55.54874-55.54707V238.06174a55.54082,55.54082,0,0,1,55.54874-55.54707H515.79626a55.54082,55.54082,0,0,1,55.54707,55.54707Zm-55.54707,7.93506V230.12668H349.15338V412.64135Z" style="fill: #666"/>
          <path d="M960.16949,460.25336H904.62242V420.57641l-39.677,39.67695H737.97954a55.54084,55.54084,0,0,1-55.54875-55.54707V238.06174a55.54084,55.54084,0,0,1,55.54875-55.54707H904.62242V55.54874L960.16949,0Zm-55.54707-47.612V190.44973l-39.677,39.677H737.97954V412.64135Z" style="fill: #666"/>
          <path d="M1134.7491,134.90265h-55.54874V71.41886h55.54874Zm0,325.35071h-55.54874V222.19162l55.54874-55.54707Z" style="fill: #666"/>
          <path d="M1471.99572,182.51467l-48.40519,47.612H1289.48105v63.4838h111.09581a55.54084,55.54084,0,0,1,55.54874,55.54707v55.54874a55.54082,55.54082,0,0,1-55.54874,55.54707H1233.934v-47.612h166.64288V341.22249H1289.48105a55.54082,55.54082,0,0,1-55.54707-55.54707V238.06174a55.54082,55.54082,0,0,1,55.54707-55.54707Z" style="fill: #666"/>
          <path d="M1737.83183,460.25336H1626.736a55.54084,55.54084,0,0,1-55.54707-55.54707V230.12668H1491.835l47.612-47.612h31.7419V126.9676L1626.736,71.41886V182.51467h111.09582v47.612H1626.736V412.64135h111.09582Z" style="fill: #666"/>
          <path d="M1872.72279,134.90265h-55.54874V71.41886h55.54874Zm0,325.35071h-55.54874V222.19162l55.54874-55.54707Z" style="fill: #666"/>
          <path d="M2221.872,182.51467l-48.40518,47.612H2039.359V412.64135h166.64288v47.612H2039.359a55.54084,55.54084,0,0,1-55.54875-55.54707V238.06174a55.54084,55.54084,0,0,1,55.54875-55.54707Z" style="fill: #666"/>
        </g>
      </g>
    </g>
  </g>
</svg>
