<svg xmlns="http://www.w3.org/2000/svg" viewBox="0 0 284.77115 200">
  <title>Asset 440</title>
  <g id="04d9a06a-6e38-4661-8612-183ae4ad4971" data-name="Layer 2">
    <g id="33235dc2-7286-4c8b-8b7f-120a2b041c76" data-name="elements">
      <path d="M117.93965,199.75242c-54.23316-.99669-72.75892-1.89658-84.14263-4.24308a36.97623,36.97623,0,0,1-19.30461-10.03817c-3.79314-3.79884-6.80317-9.59394-9.15111-17.63585-2.00763-6.69211-2.78932-12.2722-3.9042-25.88852-1.70863-30.72676-2.113-55.84923,0-83.9205C3.17989,42.52623,4.02566,24.12435,15.60729,13.38849A37.98985,37.98985,0,0,1,34.57871,3.79315C45.73746,1.67445,93.27707,0,142.49116,0c49.103,0,96.748,1.67445,107.9167,3.79315A37.13126,37.13126,0,0,1,272.62,16.95952c10.56642,16.62207,10.75151,37.2893,11.818,53.45716.44423,7.703.44423,51.44383,0,59.14688-1.66876,25.54963-3.01146,34.58967-6.80461,43.96148a32.41264,32.41264,0,0,1-7.81412,12.50143,37.42306,37.42306,0,0,1-19.8656,10.1535C203.022,199.7097,163.16978,200.47573,117.93965,199.75242Zm71.869-102.65984c-26.11063-13.95377-51.11635-26.89233-76.666-40.28509v80.12593c26.89233-14.6187,55.24551-28.01148,76.777-39.95191Z" style="fill: #cd201f"/>
    </g>
  </g>
</svg>
