<svg xmlns="http://www.w3.org/2000/svg" viewBox="0 0 246.11737 200">
  <title>Asset 441</title>
  <g id="e017c687-cb4f-42ce-9d5f-403765109b53" data-name="Layer 2">
    <g id="d1b1bce8-a0a9-4703-9971-69e480119ade" data-name="elements">
      <path d="M246.11737,23.64691a100.81163,100.81163,0,0,1-28.99969,7.95331A50.63727,50.63727,0,0,0,239.31751,3.66763,100.83846,100.83846,0,0,1,207.249,15.92773,50.51052,50.51052,0,0,0,119.92361,50.474a51.14234,51.14234,0,0,0,1.29933,11.51543A143.367,143.367,0,0,1,17.1484,9.22959,50.5393,50.5393,0,0,0,32.77291,76.63324,50.24746,50.24746,0,0,1,9.89943,70.32086V70.96a50.51242,50.51242,0,0,0,40.49593,49.50291,50.21113,50.21113,0,0,1-13.30224,1.76953,51.182,51.182,0,0,1-9.506-.8886A50.55467,50.55467,0,0,0,74.7505,156.40445,101.65636,101.65636,0,0,1,0,177.305a142.87768,142.87768,0,0,0,77.39329,22.695c92.86426,0,143.65113-76.93458,143.65113-143.65306q0-3.28575-.15354-6.52542a102.83829,102.83829,0,0,0,25.22456-26.17073Z" style="fill: #2daae1"/>
    </g>
  </g>
</svg>
